<svg clip-rule="evenodd" fill-rule="evenodd" stroke-linejoin="round" stroke-miterlimit="2" viewBox="0 0 408 136" xmlns="http://www.w3.org/2000/svg"><g fill-rule="nonzero" id="logo"><path d="m147 46.31c0-25.56-21.9-46.31-48.95-46.31-8.556-.017-16.979 2.122-24.49 6.22-7.515-4.096-15.941-6.235-24.5-6.22-27.06 0-48.98 20.75-48.98 46.31 0 23.56 41.65 59.31 48.14 64.73l25.61 24.2 32.45-30.65c13.96-12.65 40.72-39.38 40.72-58.28z" fill="#fd4a5c"/><path d="m49 0c-27.07 0-49 20.72-49 46.28s49 65.44 49 65.44 49-39.88 49-65.44-22-46.28-49-46.28z" fill="#d7282f"/><g fill="#fff"><path d="m208.71 34.4-10 .08c-.825 0-1.505-.675-1.51-1.5v-12.1c0-.823-.677-1.5-1.5-1.5h-15c-.823 0-1.5.677-1.5 1.5v13.61h-7.5c-.194-.001-.371.113-.45.29l-6.14 13.1c-.03.066-.046.137-.046.21 0 .273.223.498.496.5h12.16c.819.005 1.49.681 1.49 1.5v22.91c0 9.26 3.46 20 17.8 20 4.142-.055 8.228-.968 12-2.68.682-.308 1.032-1.085.81-1.8l-3.54-11.51c-.195-.637-.787-1.074-1.453-1.074-.231 0-.459.053-.667.154-.909.44-1.901.682-2.91.71-2.85 0-4.07-2.34-4.07-7.23v-19.49c0-.815.665-1.489 1.48-1.5l10.05-.08c.815-.011 1.48-.685 1.48-1.5v-11.11c0-.814-.666-1.485-1.48-1.49z"/><path d="m253.1 33.63c-.941-.132-1.89-.196-2.84-.19-4.363-.021-8.544 1.769-11.54 4.94-2.391 2.33-4.39 5.032-5.92 8-.087.161-.256.263-.44.263-.274 0-.5-.226-.5-.5 0-.001 0-.002 0-.003v-11.14c0-.274-.226-.5-.5-.5h-17.74c-.003 0-.007 0-.01 0-.274 0-.5.226-.5.5v53.88c0 .28.23.51.51.51h17.74c.274 0 .5-.226.5-.5 0-.003 0-.007 0-.01v-21.18c-.009-.06-.009-.12 0-.18 1.933-5.247 3.933-8.847 6-10.8 2.022-1.924 4.719-2.98 7.51-2.94 3 0 6 1.32 8.94 3.95.091.089.214.138.341.138.204 0 .388-.127.459-.318l3.89-10.19c.045-.123.045-.257 0-.38z"/><path d="m321.74 34.48h-16.67c-.597-.002-1.141.353-1.38.9l-12 27.93c-.079.189-.265.312-.47.312s-.391-.123-.47-.312l-11.54-27.91c-.236-.557-.785-.92-1.39-.92h-21.11l23.28 51c.185.403.185.867 0 1.27l-14.71 31.25c-.091.198-.138.413-.138.63 0 .827.681 1.509 1.508 1.51h17.46c.59.004 1.129-.342 1.37-.88l37.63-82.66c.088-.195.134-.406.134-.62 0-.823-.677-1.5-1.5-1.5-.001 0-.003 0-.004 0z"/><path d="m348.56 55.48c-4.86-1.55-8.84-2.43-8.84-5.41 0-2.65 1.77-3.43 6.08-3.43 5.05 0 10.57 2.54 12.14 3.32.067.031.139.048.213.048.197 0 .377-.117.457-.298l5.72-12c.033-.067.051-.142.051-.217 0-.189-.11-.362-.281-.443-5.72-2.702-11.974-4.086-18.3-4.05-14.91 0-24.74 6.63-24.74 18.22 0 8.5 5.75 12.48 11.49 15.46 6.4 3.31 12.58 3.64 12.58 7.73 0 3.75-3.31 4.08-6.07 4.08-4.72 0-10.25-3.66-12.72-5.5-.256-.188-.565-.29-.883-.29-.529 0-1.02.283-1.287.74l-6.42 10.79c-.417.659-.25 1.54.38 2 6.053 4.419 13.376 6.763 20.87 6.68 11.59 0 26.83-2.65 26.83-19.32-.05-11.59-9.77-15.8-17.27-18.11z"/><path d="m396.33 48.58 10-.08c.817-.011 1.485-.683 1.49-1.5v-11.1c0-.003 0-.007 0-.01 0-.818-.673-1.49-1.49-1.49-.007 0-.013 0-.02 0l-10 .08c-.003 0-.007 0-.01 0-.823 0-1.5-.677-1.5-1.5v-12.1c-.005-.825-.685-1.5-1.51-1.5h-15c-.823 0-1.5.677-1.5 1.5v13.61h-7.51c-.197-.002-.377.111-.46.29l-6.13 13.09c-.034.068-.051.144-.051.22 0 .274.226.5.5.5h.001 12.15c.823 0 1.5.677 1.5 1.5v22.91c0 9.26 3.46 20 17.79 20 4.142-.058 8.227-.97 12-2.68.682-.308 1.028-1.087.8-1.8l-3.44-11.62c-.191-.631-.777-1.065-1.436-1.065-.23 0-.457.053-.664.155-.914.446-1.913.691-2.93.72-2.84 0-4.06-2.34-4.06-7.23v-19.4c0-.815.665-1.489 1.48-1.5z"/><path d="m335.45 132.2c0 2.074-1.706 3.78-3.78 3.78s-3.78-1.706-3.78-3.78 1.706-3.78 3.78-3.78 3.78 1.706 3.78 3.78z"/><path d="m340.54 104.29h6.37v31h-6.37z"/><path d="m358.29 109.15c0 2.074-1.706 3.78-3.78 3.78s-3.78-1.706-3.78-3.78 1.706-3.78 3.78-3.78 3.78 1.706 3.78 3.78zm-7.06 26.09h6.37v-18.46h-6.37z"/><path d="m362.11 116.78h6.37v1.94h.07c1.364-1.495 3.268-2.388 5.29-2.48 3.38 0 8.1 1.69 8.1 6.84v12.16h-6.37v-10.44c.003-.06.005-.121.005-.182 0-1.836-1.479-3.362-3.315-3.418-1.98.069-3.615 1.625-3.78 3.6v10.44h-6.37z"/><path d="m398.21 125.6 9.65 9.64h-8.21l-7.38-7.38v7.38h-6.37v-30.95h6.37v18.93l6.45-6.44h8.28z"/></g><path d="m147 46.31c0-25.56-21.9-46.31-48.95-46.31-8.556-.017-16.979 2.122-24.49 6.22-7.515-4.096-15.941-6.235-24.5-6.22-27.06 0-48.98 20.75-48.98 46.31 0 23.56 41.65 59.31 48.14 64.73l25.61 24.2 32.45-30.65c13.96-12.65 40.72-39.38 40.72-58.28z" fill="#d72930"/><path d="m49 0c-27.07 0-49 20.72-49 46.28s49 65.44 49 65.44 49-39.88 49-65.44-22-46.28-49-46.28z" fill="#fd4a5c"/></g></svg>
