<svg xmlns="http://www.w3.org/2000/svg" width="150" height="50" viewBox="0,0,150,50"><path fill="#333" d="M60.73 41.22L60.83 41.32L57.82 41.17L57.72 41.07Q55.37 41.00 54.57 40.89L54.58 40.89L54.63 40.95Q52.64 40.44 51.46 39.56L51.59 39.70L51.50 39.61Q50.17 38.17 49.95 34.82L50.03 34.90L49.95 34.82Q50.06 34.47 49.98 33.25L49.97 33.25L49.87 33.14Q49.92 32.78 49.85 31.68L49.91 31.73L49.84 31.66Q49.74 30.77 49.78 30.05L49.87 30.13L49.83 30.10Q50.11 28.24 51.13 27.48L51.05 27.39L51.04 27.38Q52.91 26.17 57.74 25.94L57.92 26.11L57.83 26.02Q59.81 25.88 60.61 25.88L60.71 25.98L60.61 25.87Q62.11 25.89 63.48 26.19L63.45 26.16L63.52 26.23Q62.96 27.51 62.43 29.34L62.30 29.20L62.35 29.25Q61.99 29.46 61.49 29.42L61.50 29.43L61.32 29.25Q61.22 29.22 60.68 29.11L60.68 29.11L59.87 29.02L59.90 29.05Q58.78 28.73 58.17 28.77L58.07 28.66L58.11 28.70Q53.37 28.76 52.76 31.58L52.85 31.67L52.89 31.71Q52.62 32.85 52.70 33.80L52.57 33.67L52.71 33.81Q52.70 36.24 53.94 37.33L53.93 37.32L54.10 37.49Q55.15 38.39 57.74 38.43L57.80 38.48L57.90 38.58Q59.41 38.65 60.14 38.35L59.97 38.18L61.08 37.77L61.12 37.81Q61.66 37.59 62.23 37.51L62.20 37.48L62.19 37.47Q62.36 39.20 62.74 40.50L62.88 40.63L62.81 40.57Q62.57 40.94 60.78 41.28ZM63.91 44.10L64.00 44.19L64.01 44.21Q64.30 44.14 65.13 44.22L65.13 44.21L65.21 44.30Q65.78 44.26 66.12 43.69L66.17 43.73L66.19 43.76Q65.06 41.75 64.57 39.66L64.59 39.68L64.50 39.59Q64.18 39.57 63.72 39.57L63.79 39.64L63.62 39.47Q63.25 39.52 62.87 39.71L62.96 39.80L62.82 39.66Q62.54 38.46 62.38 37.05L62.46 37.13L62.36 37.03Q61.86 37.07 60.64 37.64L60.55 37.55L60.52 37.51Q59.33 38.11 58.84 38.11L58.77 38.05L58.92 38.19Q58.34 38.11 57.73 38.07L57.81 38.15L57.74 38.08Q56.88 38.10 54.90 37.53L54.96 37.59L54.96 37.59Q54.50 36.75 54.54 35.61L54.60 35.67L54.50 35.56Q54.84 31.49 59.79 30.96L59.75 30.92L59.80 30.97Q60.39 30.87 61.76 31.21L61.80 31.26L61.69 31.14Q63.18 31.60 63.90 31.57L63.87 31.53L63.88 31.54Q64.30 29.30 64.98 27.47L65.06 27.55L64.94 27.43Q64.67 27.42 64.29 27.35L64.30 27.36L63.51 27.25L63.51 27.25Q63.63 26.69 64.01 25.82L63.96 25.76L64.07 25.87Q62.51 25.49 60.95 25.49L60.97 25.51L60.89 25.43Q58.58 25.52 54.20 25.90L54.09 25.79L54.17 25.87Q52.22 26.02 50.66 27.01L50.71 27.06L50.59 26.94Q49.45 27.97 49.45 29.87L49.53 29.95L49.40 29.82Q49.37 30.20 49.48 31.42L49.53 31.47L49.57 31.51Q49.73 32.62 49.69 33.23L49.53 33.07L49.67 33.21Q49.65 35.05 50.37 38.79L50.31 38.72L50.37 38.78Q50.74 39.61 51.23 40.10L51.16 40.03L51.38 40.25L51.42 40.25L51.49 40.32Q52.57 42.50 56.49 43.11L56.55 43.18L56.55 43.18Q59.63 43.59 62.30 43.86L62.35 43.91L62.25 43.81Q63.07 43.90 63.98 44.17Z"/><path d="M8 34 C79 4,87 47,145 37" stroke="#999" fill="none"/><path fill="#222" d="M124.95 41.66L124.90 41.61L124.83 41.54Q122.68 41.10 120.51 40.95L120.46 40.89L120.52 40.96Q119.24 39.68 116.57 35.83L116.55 35.81L116.57 35.82Q114.33 38.88 111.94 41.32L111.88 41.27L109.86 41.72L109.74 41.60Q108.78 41.89 107.79 42.16L107.81 42.18L107.66 42.03Q111.96 38.03 114.97 33.92L115.01 33.96L114.92 33.87Q111.73 29.77 106.32 24.97L106.31 24.96L106.27 24.92Q108.42 25.58 111.12 26.00L111.13 26.01L111.20 26.08Q114.52 29.05 116.42 31.76L116.48 31.82L116.61 31.95Q118.65 28.81 121.39 26.30L121.31 26.21L121.46 26.37Q124.42 25.94 126.25 25.45L126.27 25.46L126.33 25.52Q121.65 29.03 117.96 33.60L118.13 33.77L118.10 33.75Q121.47 38.40 124.93 41.64ZM127.78 24.77L127.74 24.73L127.72 24.71Q124.87 25.59 121.33 25.93L121.21 25.81L121.34 25.94Q118.47 28.63 116.75 31.10L116.69 31.04L116.65 30.99Q115.86 30.06 114.23 28.08L114.14 27.99L114.03 28.07L113.95 27.99Q113.74 27.90 113.62 27.90L113.65 27.92L113.66 27.93Q113.01 27.20 111.37 25.75L111.29 25.67L111.21 25.59Q107.69 25.12 104.84 23.90L104.95 24.02L104.78 23.85Q110.43 28.77 114.46 33.91L114.38 33.83L114.45 33.90Q110.98 38.43 106.57 42.73L106.57 42.74L106.73 42.89Q106.83 42.64 110.33 41.81L110.36 41.83L110.47 41.95Q108.92 43.25 107.28 44.59L107.16 44.46L107.32 44.62Q110.46 43.66 113.62 43.47L113.58 43.42L113.50 43.34Q115.97 41.17 117.87 38.43L117.82 38.37L117.95 38.50Q119.24 40.14 120.46 41.32L120.44 41.30L120.46 41.32Q120.67 41.41 120.74 41.49L120.75 41.49L120.84 41.39L120.94 41.49Q122.15 42.55 123.48 43.62L123.51 43.65L123.41 43.54Q127.15 44.24 130.05 45.27L129.88 45.11L130.04 45.26Q123.69 40.62 119.99 35.45L120.07 35.52L120.17 35.62Q123.67 30.44 128.23 26.36L128.32 26.45L128.26 26.39Q127.34 26.77 126.35 26.99L126.31 26.95L124.34 27.45L124.27 27.39Q125.56 26.58 127.73 24.72Z"/><path d="M9 40 C57 12,72 24,132 46" stroke="#555" fill="none"/><path fill="#222" d="M25.74 28.83L25.84 28.93L25.87 28.96Q23.36 29.01 22.34 30.19L22.26 30.11L22.26 30.11Q21.23 31.29 21.23 33.91L21.13 33.82L21.23 33.91Q21.20 38.98 25.81 38.79L25.82 38.80L25.88 38.87Q27.97 39.06 29.32 37.49L29.21 37.39L29.35 37.52Q30.61 35.87 30.38 33.81L30.50 33.93L30.40 33.83Q30.46 31.34 29.59 30.32L29.53 30.26L29.60 30.33Q28.05 28.94 25.85 28.94ZM30.92 38.77L30.95 38.79L30.80 38.65Q29.65 41.15 24.97 41.15L25.00 41.18L23.64 41.27L23.52 41.16Q21.23 41.23 20.13 40.08L20.08 40.04L20.10 40.06Q19.14 39.10 18.88 36.70L18.76 36.58L18.84 36.66Q18.64 35.13 18.56 33.34L18.62 33.40L18.47 33.24Q18.49 32.32 18.34 30.38L18.39 30.43L18.31 30.35Q18.25 26.10 23.43 26.10L23.51 26.19L25.01 26.12L25.00 26.11Q27.85 26.06 29.94 27.36L30.00 27.42L29.98 27.40Q30.77 27.89 31.27 28.57L31.28 28.58L31.19 28.49Q31.46 27.69 31.99 26.06L32.03 26.10L32.14 26.20Q33.36 26.02 35.68 25.41L35.62 25.34L35.54 25.27Q32.95 29.49 32.95 34.74L33.05 34.84L32.94 34.74Q33.11 38.64 34.48 41.72L34.41 41.65L34.49 41.73Q33.19 41.27 31.29 41.04L31.36 41.12L31.32 41.07Q31.06 40.17 30.76 38.61ZM34.09 43.84L34.11 43.86L36.42 44.54L36.38 44.49Q37.50 44.70 38.49 45.15L38.49 45.16L38.51 45.18Q34.89 40.87 34.89 34.78L34.87 34.76L35.01 34.91Q34.95 30.31 37.08 26.50L36.99 26.42L37.07 26.49Q36.51 26.81 35.18 27.19L35.05 27.06L35.14 27.15Q35.49 26.39 36.36 24.87L36.22 24.73L36.35 24.86Q35.69 24.96 31.69 25.80L31.79 25.89L31.12 27.62L31.13 27.64Q29.42 25.96 25.00 25.73L25.05 25.78L24.92 25.65Q23.94 25.81 21.69 25.96L21.58 25.85L21.58 25.85Q17.82 26.12 17.93 30.16L18.01 30.23L18.07 30.30Q18.18 33.61 18.76 38.06L18.71 38.02L18.65 38.38L18.70 38.43Q18.79 39.24 19.59 40.35L19.64 40.39L19.72 40.48Q19.79 40.54 19.98 40.66L20.06 40.74L20.08 40.76Q20.33 41.23 20.71 41.81L20.70 41.80L20.70 41.80Q22.00 43.21 25.39 43.40L25.52 43.54L25.55 43.56Q27.00 43.49 27.16 43.49L27.30 43.63L28.74 43.52L28.76 43.54Q32.08 43.66 33.30 42.10L33.31 42.11L33.25 42.05Q33.55 42.62 34.16 43.91ZM27.66 31.21L27.61 31.15L27.57 31.12Q28.88 31.10 29.72 31.56L29.72 31.56L29.87 31.70Q30.11 32.44 30.11 33.88L30.15 33.92L30.14 33.92Q30.33 35.82 29.06 37.25L29.06 37.25L28.99 37.18Q27.67 38.56 25.77 38.37L25.75 38.35L25.80 38.41Q24.32 38.37 23.29 37.96L23.34 38.01L23.35 38.01Q23.13 37.14 23.13 35.92L23.11 35.91L23.22 36.02Q23.34 32.48 25.97 31.53L25.90 31.46L25.95 31.51Q26.78 31.13 27.58 31.13Z"/><path fill="#444" d="M90.08 30.88L90.08 30.88L90.07 30.88Q90.02 29.73 88.08 29.00L88.13 29.05L87.97 28.89Q87.46 28.69 86.93 28.69L87.03 28.79L87.10 28.86Q85.71 28.84 84.64 29.41L84.66 29.42L84.60 29.36Q83.30 30.16 83.41 31.38L83.23 31.19L83.39 31.36Q83.70 34.14 83.55 36.38L83.52 36.36L83.44 36.28Q83.45 38.87 82.73 41.39L82.70 41.36L82.70 41.36Q80.54 41.83 79.36 42.24L79.22 42.11L79.41 42.30Q80.92 38.59 80.92 34.59L80.88 34.55L81.01 34.68Q80.95 29.18 78.37 24.73L78.36 24.73L78.39 24.76Q79.60 25.25 82.00 25.97L81.93 25.90L81.93 25.89Q82.33 26.72 82.71 28.24L82.68 28.21L82.72 28.25Q84.01 26.11 87.89 26.19L87.82 26.12L87.76 26.05Q89.39 26.23 90.19 26.35L90.12 26.28L90.08 26.25Q93.01 26.58 93.08 28.60L93.19 28.70L93.25 28.76Q93.23 29.62 93.04 30.65L93.03 30.64L92.93 30.54Q92.54 33.12 92.73 36.13L92.68 36.08L92.70 36.09Q93.00 39.10 93.99 41.65L93.95 41.61L93.96 41.62Q92.20 41.15 90.49 41.00L90.53 41.04L90.56 41.07Q90.08 38.69 90.00 36.03L89.98 36.00L90.01 36.03Q89.79 33.14 90.02 30.82ZM90.04 41.27L90.16 41.40L90.10 41.34Q90.80 41.24 92.10 41.47L92.17 41.55L92.56 42.61L92.48 42.54Q92.75 43.11 92.98 43.65L93.06 43.72L93.08 43.75Q95.35 44.15 98.05 45.33L98.02 45.29L98.00 45.28Q95.64 42.16 94.96 38.35L94.89 38.29L94.96 38.36Q94.54 36.15 94.66 32.46L94.66 32.46L94.78 32.58Q94.67 32.16 94.71 31.37L94.67 31.32L94.83 31.49Q94.84 30.81 94.76 30.32L94.68 30.23L94.69 30.24Q94.64 28.63 93.53 28.13L93.53 28.13L93.47 28.07Q93.31 27.22 92.54 26.61L92.67 26.74L92.67 26.73Q90.94 25.69 87.89 25.77L87.85 25.72L87.77 25.64Q85.93 25.71 85.10 25.90L85.08 25.89L85.13 25.94Q83.62 26.21 82.67 27.13L82.79 27.26L82.69 27.15Q82.56 26.61 82.18 25.58L82.23 25.63L82.32 25.71Q79.34 24.87 77.52 23.88L77.70 24.06L77.66 24.03Q80.61 28.80 80.61 34.55L80.57 34.51L80.75 34.69Q80.61 38.93 78.71 42.77L78.77 42.84L78.82 42.89Q79.47 42.55 80.76 42.16L80.80 42.20L80.69 42.09Q80.19 43.35 79.66 44.34L79.67 44.35L79.69 44.37Q81.04 43.85 84.58 43.28L84.73 43.43L84.65 43.35Q85.63 38.20 85.52 33.37L85.54 33.38L85.44 33.29Q85.55 32.60 86.73 31.87L86.61 31.76L86.67 31.81Q87.76 31.23 88.86 31.11L88.75 31.01L88.76 31.01Q89.21 30.97 89.63 31.16L89.69 31.22L89.69 31.22Q89.62 33.85 89.66 36.40L89.59 36.33L89.59 36.33Q89.61 38.83 90.10 41.34Z"/></svg>